<?xml version="1.0" encoding="UTF-8"?>
<svg version="1.1" xmlns="http://www.w3.org/2000/svg" width="1000" height="1000">
<path d="M0 0 C330 0 660 0 1000 0 C1000 330 1000 660 1000 1000 C670 1000 340 1000 0 1000 C0 670 0 340 0 0 Z " fill="#FEFEFE" transform="translate(0,0)"/>
<path d="M0 0 C0.85389313 0.00021149 1.70778625 0.00042297 2.58755493 0.00064087 C16.76045012 0.03554255 30.21838395 1.19427709 44.0625 4.375 C45.79293201 4.74105916 47.52340048 5.10694597 49.25390625 5.47265625 C82.71765657 12.88910278 113.47870659 30.45256866 138.30859375 53.83203125 C140.24392906 55.61912811 142.16924439 57.3087725 144.203125 58.97265625 C147.94665331 62.11783373 150.9371191 65.63092125 154.0625 69.375 C154.77664063 70.22449219 155.49078125 71.07398438 156.2265625 71.94921875 C184.83196497 106.40349217 203.45293107 148.74551286 203.125 194 C203.12048828 195.19496094 203.11597656 196.38992188 203.11132812 197.62109375 C203.09965603 200.53911647 203.08328326 203.45703037 203.0625 206.375 C202.39863281 206.68953125 201.73476563 207.0040625 201.05078125 207.328125 C192.89937712 211.27887853 187.85162002 215.1879717 182.75 222.625 C182.29560547 223.2746875 181.84121094 223.924375 181.37304688 224.59375 C180.26295861 226.18292899 179.16180349 227.77834173 178.0625 229.375 C176.92410996 225.95982989 177.26853201 224.7234948 178.015625 221.265625 C178.94520337 216.10164614 179.17870225 211.26506129 179.046875 206.046875 C179.02312805 204.95892639 179.02312805 204.95892639 178.99890137 203.84899902 C178.92656346 200.8468934 178.84185591 197.84622842 178.71972656 194.84570312 C178.17159619 180.54504339 178.17159619 180.54504339 181.9609375 175.5703125 C182.49380371 175.02391113 183.02666992 174.47750977 183.57568359 173.91455078 C188.62141366 168.68985886 188.37523792 161.00280017 188.5 154.1875 C188.53359619 153.02855225 188.53359619 153.02855225 188.56787109 151.84619141 C188.54625974 146.57188481 187.54684699 143.55492827 184.0625 139.375 C181.96210669 137.98631484 181.96210669 137.98631484 180.0625 137.375 C178.100784 143.31784552 177.4562719 149.09148938 176.9375 155.3125 C176.85113281 156.28251953 176.76476562 157.25253906 176.67578125 158.25195312 C176.46528881 160.62584011 176.26102115 163.00008706 176.0625 165.375 C174.0625 164.375 174.0625 164.375 172.8359375 161.0859375 C172.36623036 159.64177845 171.90034555 158.19637276 171.4375 156.75 C169.13822755 149.81019017 166.29453546 143.54682183 162.51513672 137.28662109 C160.97908161 134.64395361 160.04074319 132.85945172 160.1796875 129.765625 C161.13785573 127.17093934 162.3446037 124.82635702 163.625 122.375 C167.89454189 112.37136406 168.19668606 98.63542277 164.3125 88.4375 C163.25710375 86.27725216 163.25710375 86.27725216 162.0625 84.375 C161.70414063 83.75367188 161.34578125 83.13234375 160.9765625 82.4921875 C159.55200215 80.18932678 158.51872603 78.60311301 156.0625 77.375 C153.70091854 92.00837086 154.21597861 105.65157433 155.0625 120.375 C154.4025 120.375 153.7425 120.375 153.0625 120.375 C151.50139468 118.36480959 150.05484591 116.3511558 148.625 114.25 C145.02039338 109.05989852 141.27465781 104.04704095 137.3125 99.125 C133.04338557 93.79526821 129.47425361 88.29473143 126.0625 82.375 C122.32463021 76.57485722 116.85252696 73.39762202 110.25390625 71.6171875 C107.86111958 71.13523614 105.47945138 70.71307044 103.0625 70.375 C108.9248303 83.36255622 113.70155917 90.7007527 126.5625 97.25 C133.25546211 100.68732284 137.64918277 104.16518375 142.0625 110.375 C142.56555664 111.08221191 143.06861328 111.78942383 143.58691406 112.51806641 C159.0625 134.408518 159.0625 134.408518 159.0625 138.375 C153.84690628 136.42296493 148.97529065 133.84405736 144.03320312 131.296875 C140.11195993 129.30466045 136.29201712 127.64584082 132.0625 126.375 C135.90350428 136.60500149 144.16809925 143.98270132 153.578125 149.33203125 C156.23532943 150.44755575 158.52114238 150.79993042 161.375 151.125 C164.24592534 151.61395447 165.61969544 151.90230614 167.625 154.04296875 C174.71103475 166.90855059 176.84319219 182.92062182 177.0625 197.375 C175.0625 196.375 175.0625 196.375 174 193.5625 C170.98676548 186.07601012 165.05665288 178.72912013 159.0625 173.375 C158.0725 173.045 157.0825 172.715 156.0625 172.375 C159.39567864 187.15692265 163.84786912 201.56524608 177.0625 210.375 C176.27359835 224.8907904 172.00575043 237.77333213 167.0625 251.375 C166.00132833 248.19148498 166.02598245 246.08215578 166.125 242.75 C166.17644533 234.22036448 164.93851479 227.46738515 160.0625 220.375 C159.0725 220.045 158.0825 219.715 157.0625 219.375 C153.64902549 240.27114896 153.64902549 240.27114896 159.73046875 259.953125 C161.0625 262.375 161.0625 262.375 161.02734375 264.66015625 C159.62326037 268.61091718 157.6817433 272.16592886 155.625 275.8125 C154.96153564 276.99706787 154.96153564 276.99706787 154.28466797 278.20556641 C149.18716057 287.14195963 143.58222331 296.26731632 136.0625 303.375 C136.36994141 302.03308594 136.36994141 302.03308594 136.68359375 300.6640625 C138.26405555 293.57088943 139.57770961 286.63013889 140.0625 279.375 C134.80140934 281.78007002 132.35206191 285.22162124 130.0625 290.375 C127.62014408 298.17583579 125.64802161 306.04391685 125.53125 314.26171875 C123.35079261 324.0919475 107.64785216 331.95277108 100.0625 337.375 C99.4025 337.045 98.7425 336.715 98.0625 336.375 C98.51689453 335.66150391 98.51689453 335.66150391 98.98046875 334.93359375 C103.24703669 327.80514332 105.62035609 320.26260521 108.0625 312.375 C99.52814432 315.30731708 95.32575119 322.97035678 91.25390625 330.625 C90.11033722 333.26458228 89.59265395 335.4810793 89.1875 338.3125 C88.72304033 340.89232056 88.50163175 342.00124767 86.48828125 343.71484375 C84.38125658 344.81182123 82.31302552 345.61587896 80.0625 346.375 C79.27488281 346.67148437 78.48726562 346.96796875 77.67578125 347.2734375 C73.85348046 348.65072936 71.19376684 349.375 67.0625 349.375 C67.0625 350.035 67.0625 350.695 67.0625 351.375 C80.75376317 348.44375882 93.48038364 344.34488087 105.125 336.375 C109.64660076 333.36729816 109.64660076 333.36729816 113.4375 333.4375 C114.63375 333.746875 115.83 334.05625 117.0625 334.375 C128.96962604 335.49739303 138.74774871 332.94323542 148.0625 325.375 C148.7225 325.375 149.3825 325.375 150.0625 325.375 C150.3925 324.055 150.7225 322.735 151.0625 321.375 C140.81593542 320.98752487 132.03106181 321.79454024 122.0625 324.375 C124.75380652 321.18792649 127.44678802 318.03154454 130.30078125 314.98828125 C135.90082545 309.01459274 135.90082545 309.01459274 140.625 302.3671875 C147.22630838 291.87400749 147.22630838 291.87400749 152.7421875 290.375 C155.31767647 290.29208687 157.89710822 290.29003589 160.47265625 290.37109375 C166.88627333 290.37807266 171.55515207 287.73265552 176.15625 283.40625 C180.22452666 278.93781498 183.0625 275.57753337 183.0625 269.375 C177.47517892 268.9953487 173.66245431 270.07881246 168.8125 272.6875 C168.20148438 272.99623047 167.59046875 273.30496094 166.9609375 273.62304688 C163.86515491 275.22839265 161.45237061 276.85322094 159.0625 279.375 C158.4025 279.375 157.7425 279.375 157.0625 279.375 C158.3413508 276.0951153 159.72425215 272.91261613 161.26953125 269.75 C161.68807373 268.88463623 162.10661621 268.01927246 162.5378418 267.12768555 C163.44364054 265.26300034 164.35276051 263.39992546 165.26489258 261.53833008 C168.14489406 255.60419307 168.14489406 255.60419307 170.3046875 249.38671875 C171.74220645 244.3316418 172.86879412 240.85659069 177.44921875 238.05859375 C180.07181047 236.64083495 182.75254258 235.37392302 185.45703125 234.12109375 C194.17999617 230.06644365 197.93600425 222.73379909 202.0625 214.375 C202.3925 214.375 202.7225 214.375 203.0625 214.375 C205.48458733 258.51081361 182.24893667 305.15523869 153.6875 337.5 C152.159634 339.13798247 150.61645776 340.76174974 149.0625 342.375 C148.56024902 342.90303223 148.05799805 343.43106445 147.54052734 343.97509766 C139.29301521 352.61221769 130.67002218 360.28683754 121.0625 367.375 C119.82306641 368.30699219 119.82306641 368.30699219 118.55859375 369.2578125 C106.99449826 377.6716214 94.26647292 384.90784148 81.0625 390.375 C80.3101709 390.68679199 79.5578418 390.99858398 78.78271484 391.31982422 C44.41768732 405.3987696 5.89589932 410.92590659 -30.9375 404.375 C-32.69707031 404.08302734 -32.69707031 404.08302734 -34.4921875 403.78515625 C-72.53749768 396.87154612 -106.05970995 379.82994572 -134.9375 354.375 C-136.20207031 353.29412109 -136.20207031 353.29412109 -137.4921875 352.19140625 C-141.74831273 348.51566173 -145.58787908 344.7075979 -149.2109375 340.40625 C-150.35049459 339.0655946 -151.52244784 337.7517368 -152.7265625 336.46875 C-163.31731398 325.13708175 -171.72350778 311.89916365 -178.95117188 298.22900391 C-179.86635074 296.50873947 -180.81466897 294.80621703 -181.765625 293.10546875 C-187.67732138 282.0942685 -191.23505553 270.2684105 -194.9375 258.375 C-195.16598633 257.67262207 -195.39447266 256.97024414 -195.62988281 256.24658203 C-206.71219543 222.1380896 -204.72013953 181.19723735 -194.49560547 147.24316406 C-194.03046135 145.68617246 -193.59193969 144.12125858 -193.16015625 142.5546875 C-183.40970619 107.59153521 -160.82785014 73.55916317 -132.9375 50.375 C-131.99519531 49.54484375 -131.05289063 48.7146875 -130.08203125 47.859375 C-106.86951138 27.49561515 -78.68243307 12.89315582 -48.6875 5.75 C-47.47964844 5.4509375 -46.27179688 5.151875 -45.02734375 4.84375 C-29.95267808 1.21555571 -15.43207183 -0.03547344 0 0 Z " fill="#C7E3D6" transform="translate(498.9375,296.625)"/>
<path d="M0 0 C2.11055233 0.00316097 4.21969733 -0.02041402 6.33007812 -0.0456543 C31.75991218 -0.1647402 57.95811421 8.76545534 78.74414062 23.31567383 C79.73414063 23.97567383 80.72414063 24.63567383 81.74414062 25.31567383 C80.97972656 25.46262695 80.2153125 25.60958008 79.42773438 25.76098633 C70.41944019 27.64719955 62.14771294 30.64531436 53.74414062 34.31567383 C53.07898438 34.60039551 52.41382813 34.88511719 51.72851562 35.1784668 C31.50405535 43.90605473 13.25873945 56.24690279 -2.91601562 71.16333008 C-5.86887354 73.87956499 -8.90775218 76.49137233 -11.95507812 79.10083008 C-41.72747397 107.76118397 -59.05188509 146.85099443 -66.7578125 186.78100586 C-67.08695621 188.4560892 -67.43947873 190.12676594 -67.81640625 191.79174805 C-69.61559348 200.27065799 -69.5627448 208.69546804 -69.50585938 217.31567383 C-69.50408691 218.08792297 -69.50231445 218.86017212 -69.50048828 219.65582275 C-69.47218631 230.15013875 -69.11909849 240.49016413 -67.69335938 250.90161133 C-67.3265922 253.76370514 -67.16696803 256.43781655 -67.25585938 259.31567383 C-71.38335006 258.72171785 -74.34594522 256.39622717 -77.63085938 254.00317383 C-78.24227783 253.55949463 -78.85369629 253.11581543 -79.48364258 252.65869141 C-112.17634099 228.58759987 -131.67255112 195.03509525 -137.79101562 154.79614258 C-138.06667029 151.95806423 -138.20214437 149.1664058 -138.25585938 146.31567383 C-138.29453125 145.07946289 -138.33320313 143.84325195 -138.37304688 142.56958008 C-139.27871568 101.82933107 -122.24753218 66.31482203 -94.50585938 37.19067383 C-82.84084678 25.78570928 -68.67375895 16.73685998 -53.56835938 10.69067383 C-52.60937744 10.30387451 -51.65039551 9.9170752 -50.66235352 9.51855469 C-34.18004253 3.00267754 -17.71339971 -0.05520104 0 0 Z " fill="#FCEBEF" transform="translate(367.255859375,278.684326171875)"/>
<path d="M0 0 C7.98948301 0.0339978 13.72598366 2.00039323 20 7 C23.57789055 10.72963144 26.02196224 15.03344985 28.5625 19.5 C31.88389108 25.19759906 36.03174186 30.15103158 40.24243164 35.203125 C50 46.91861212 50 46.91861212 50 50 C50.66 50 51.32 50 52 50 C51.7834375 48.11667969 51.7834375 48.11667969 51.5625 46.1953125 C48.2312857 16.5374286 48.2312857 16.5374286 53 7 C56.54453168 8.41781267 57.8573491 9.89716538 59.625 13.25 C60.02976562 13.99765625 60.43453125 14.7453125 60.8515625 15.515625 C63.76928521 21.82743332 64.41849499 27.24886648 64.4375 34.125 C64.44221313 35.52298828 64.44221313 35.52298828 64.44702148 36.94921875 C64.33047648 43.6865742 63.33149464 48.61320684 60.19140625 54.625 C58.86612814 57.26686588 58.13317952 59.034536 58 62 C59.09105066 64.40090281 60.20934946 66.50795106 61.5625 68.75 C66.1724219 76.81430904 69.15166573 85.18526856 72 94 C72.96695048 89.86272009 73.19442353 85.86424772 73.375 81.625 C73.66048699 76.16630327 74.30546775 71.80329662 77 67 C80.17033042 67.33967826 80.99882607 67.99869191 83.1875 70.4375 C87.67451555 76.78121164 86.62048646 85.46670032 86 93 C84.8477089 98.4921701 83.346044 102.59206006 79.44091797 106.67675781 C76.4937514 110.18901138 76.44495727 112.93827838 76.58203125 117.53125 C76.59975838 118.60070862 76.59975838 118.60070862 76.61784363 119.69177246 C76.65879442 121.96247458 76.73337627 124.23033463 76.8125 126.5 C76.89667977 129.46854651 76.96496057 132.43701396 77.01953125 135.40625 C77.03380157 136.1273999 77.0480719 136.8485498 77.06277466 137.59155273 C77.13236411 144.526616 76.23883852 151.17310756 75 158 C75.6290625 157.05898438 76.258125 156.11796875 76.90625 155.1484375 C82.49465782 146.95561661 87.6622772 140.09222911 97 136 C97.99 136 98.98 136 100 136 C99.67 125.77 99.34 115.54 99 105 C119.94150184 125.94150184 132.923431 151.89190295 138 181 C138.18433594 182.00160156 138.36867188 183.00320313 138.55859375 184.03515625 C142.79387349 222.07771323 133.63139828 259.16763964 109.9375 289.375 C108.63901931 290.92849293 107.3264318 292.47030361 106 294 C105.29230469 294.82886719 104.58460938 295.65773438 103.85546875 296.51171875 C80.73242129 322.955414 46.4280347 340.17044678 11.33789062 342.85498047 C-7.76491769 344.0399291 -25.86415456 342.32120754 -44 336 C-45.77048674 335.41561556 -47.54128303 334.83216744 -49.3125 334.25 C-50.529375 333.8375 -51.74625 333.425 -53 333 C-53 332.34 -53 331.68 -53 331 C-53.99 330.67 -54.98 330.34 -56 330 C-55.17242188 329.8040625 -54.34484375 329.608125 -53.4921875 329.40625 C-18.22427761 320.57022938 12.29062057 303.4675226 38.53222656 278.40039062 C39.51354536 277.46412239 40.49993031 276.53313646 41.49121094 275.60742188 C54.72358651 263.22735937 64.88470659 248.59432019 74 233 C74.36077637 232.38302246 74.72155273 231.76604492 75.09326172 231.13037109 C89.46597733 206.19513419 100.80047993 174.0744166 99 145 C98.731875 145.6290625 98.46375 146.258125 98.1875 146.90625 C92.77978647 158.71783482 84.63895228 164.72455421 73 170 C72.34 170 71.68 170 71 170 C70.87625 170.51304687 70.7525 171.02609375 70.625 171.5546875 C67.09054966 184.67633439 60.81183477 197.28570839 54 209 C54.61746094 208.54109375 55.23492188 208.0821875 55.87109375 207.609375 C63.48105269 202.09591921 70.31232358 197.1755169 80 198 C80.85351001 200.89075713 81.24529 202.43128326 80.03125 205.24609375 C75.2901716 212.03115747 69.56482942 219.25449072 61 221 C59.33904297 220.91878906 59.33904297 220.91878906 57.64453125 220.8359375 C50.48404879 220.39239323 50.48404879 220.39239323 44.31982422 223.41113281 C40.92420673 227.26083381 38.22180854 231.58424807 35.44824219 235.890625 C33.21540369 239.14277008 30.59720579 241.96749808 27.875 244.8125 C25.31697654 247.50027828 23.05876544 249.91185185 21 253 C21.73863281 252.7834375 22.47726562 252.566875 23.23828125 252.34375 C31.48545729 250.08023027 39.61328492 248.59270215 48 251 C47.68587273 253.97766477 47.15830429 254.8685509 44.8125 256.81640625 C33.63849328 263.75360209 23.8493912 267.18998879 10.5390625 264.23046875 C5.99169214 263.93433757 3.59301151 265.5763335 0 268.0625 C-10.37208921 274.76593316 -23.39964359 281.61465153 -36 281 C-36 280.34 -36 279.68 -36 279 C-35.4652002 278.823479 -34.93040039 278.64695801 -34.37939453 278.46508789 C-31.96074202 277.66579184 -29.54286513 276.86417455 -27.125 276.0625 C-26.28324219 275.78470703 -25.44148437 275.50691406 -24.57421875 275.22070312 C-23.76855469 274.95322266 -22.96289062 274.68574219 -22.1328125 274.41015625 C-21.38918457 274.16402588 -20.64555664 273.91789551 -19.87939453 273.66430664 C-17.94577687 273.02437575 -17.94577687 273.02437575 -16 272 C-15.51567645 270.37279099 -15.11287472 268.72102356 -14.75 267.0625 C-12.26897078 257.52102941 -6.6123064 248.37954423 1 242 C2.32 242 3.64 242 5 242 C4.40805184 250.6819064 0.57389824 258.69781159 -4 266 C2.25416291 261.96362535 8.19659385 257.66014603 14 253 C14.61488281 252.51015625 15.22976563 252.0203125 15.86328125 251.515625 C19.43981152 248.6134286 20.83453098 247.37290136 21.39453125 242.7265625 C21.4605957 242.07236328 21.52666016 241.41816406 21.59472656 240.74414062 C22.71594477 229.83363157 24.46195803 217.7909633 33 210 C35.1875 209.29296875 35.1875 209.29296875 37 209 C37.49155247 217.06510168 36.04937325 224.21726112 34 232 C40.37429072 223.34761225 46.45008101 214.64626005 51.6875 205.25 C52.31954346 204.12585693 52.31954346 204.12585693 52.96435547 202.97900391 C55.90599653 197.77414312 55.90599653 197.77414312 57 192 C56.06331832 190.2969424 55.05578817 188.6318974 54 187 C49.87125779 173.88317291 50.52133441 162.19385777 54 149 C55.83203125 149.20703125 55.83203125 149.20703125 58 150 C59.44921875 152.07421875 59.44921875 152.07421875 60.6875 154.6875 C61.31205078 155.96173828 61.31205078 155.96173828 61.94921875 157.26171875 C63.93536161 162.43750368 64.11862563 167.37468814 64.0625 172.875 C64.05347656 174.02742187 64.04445313 175.17984375 64.03515625 176.3671875 C64.02355469 177.23601562 64.01195312 178.10484375 64 179 C71.2188432 159.98136806 71.2188432 159.98136806 73 140 C71.34592396 137.41964137 69.78026022 136.18426748 67.23046875 134.5078125 C59.79685358 129.48263657 56.50074599 119.19801004 54 111 C53.42738177 107.9474396 53.15812329 105.10975798 53 102 C59.04032178 102.76528964 62.3966195 108.57370215 66 113 C72.02941995 121.08092383 72.02941995 121.08092383 73 126 C72.9711487 116.73873164 71.57582226 108.36241671 69.125 99.4375 C68.86831543 98.49825684 68.61163086 97.55901367 68.34716797 96.59130859 C66.36330836 89.499319 66.36330836 89.499319 63 83 C60.90086263 82.10748346 60.90086263 82.10748346 58.5 82.0625 C46.90044593 80.31162391 38.5448235 71.35652408 31 63 C29 60 29 60 29 56 C34.35535861 56.55313563 38.36562585 58.4278891 43.0625 60.875 C43.75666016 61.22691406 44.45082031 61.57882812 45.16601562 61.94140625 C48.86397194 63.83077045 52.4681401 65.81065995 56 68 C50.62989983 57.89157615 44.47309425 48.72831376 37.37597656 39.75219727 C36.10279152 38.13089686 34.87905203 36.47109434 33.66015625 34.80859375 C30.33993101 31.30309897 26.93835352 29.61272631 22.625 27.5625 C11.01454285 21.6726757 5.31938617 14.9645768 0 3 C0 2.01 0 1.02 0 0 Z " fill="#FCEBEF" transform="translate(602,367)"/>
<path d="M0 0 C1.6742034 3.08531769 2.85752799 6.28769209 4.0534668 9.58227539 C11.02924007 28.51947861 20.67757559 46.03230071 33 62 C33.42442383 62.55139648 33.84884766 63.10279297 34.28613281 63.67089844 C38.82459928 69.50814268 43.6547445 74.89832577 49 80 C54 85 54 85 55.62890625 86.734375 C64.80535329 96.31312974 75.73019681 103.65219778 86.78515625 110.87109375 C89.26239131 112.5115471 91.6539776 114.18051629 94 116 C91.21130596 119.83445431 88.07700386 122.76886128 84.5 125.82421875 C81.29597443 128.61272226 78.1791926 131.48961609 75.0625 134.375 C74.48250244 134.91133057 73.90250488 135.44766113 73.30493164 136.00024414 C70.62027337 138.46640825 70.62027337 138.46640825 68 141 C55.98449006 141.58552174 43.85007678 140.68072751 31.84765625 140.125 C29.85128577 140.03502592 27.85490182 139.94535024 25.85850525 139.85595703 C20.65534946 139.62218478 15.45238417 139.38441403 10.24945068 139.14575195 C4.91966675 138.9019997 -0.41029094 138.66210974 -5.74023438 138.421875 C-16.16032787 137.95165321 -26.58022384 137.47719846 -37 137 C-39.19428315 132.63827875 -39.1542031 128.8059021 -38.87573242 124.05126953 C-38.83861649 123.26508743 -38.80150055 122.47890533 -38.76325989 121.66889954 C-38.63800253 119.0728847 -38.49685218 116.47799497 -38.35546875 113.8828125 C-38.26438455 112.06505949 -38.17425602 110.24725836 -38.08503723 108.42941284 C-37.84712024 103.63751256 -37.59556879 98.84641919 -37.34136963 94.05535889 C-37.08799855 89.23005187 -36.84858657 84.40405445 -36.60742188 79.578125 C-36.13133673 70.12821279 -35.65382151 60.6784743 -35.12249374 51.23148346 C-35.00177806 49.03239106 -34.8919884 46.83293365 -34.78286743 44.63323975 C-34.70902494 43.28785448 -34.63470159 41.94249549 -34.55981445 40.59716797 C-34.46951714 38.85909378 -34.46951714 38.85909378 -34.37739563 37.08590698 C-33.78144834 32.21293611 -32.42898068 28.9920907 -28.8046875 25.6953125 C-28.1751416 25.11539551 -27.5455957 24.53547852 -26.89697266 23.93798828 C-26.22972168 23.33970215 -25.5624707 22.74141602 -24.875 22.125 C-24.19356934 21.50222168 -23.51213867 20.87944336 -22.81005859 20.23779297 C-18.86602189 16.64416984 -14.89464318 13.07969269 -10.8515625 9.59765625 C-7.19545062 6.44290993 -3.60504772 3.21283188 0 0 Z " fill="#F1F5F3" transform="translate(306,561)"/>
<path d="M0 0 C0.92841705 0.01434082 1.85683411 0.02868164 2.81338501 0.04345703 C19.83273266 0.4006624 36.84814817 1.37813353 53.8482666 2.22924805 C58.76974621 2.47446971 63.69152617 2.71350751 68.61328125 2.953125 C78.20863043 3.4211619 87.80363668 3.89586177 97.3984375 4.375 C97.51285307 16.25778113 97.18305178 28.06433257 96.55859375 39.9296875 C96.47099516 41.65022212 96.38371664 43.37077306 96.29673767 45.09133911 C96.11528825 48.66292374 95.9309947 52.23434541 95.74438477 55.80566406 C95.50681535 60.35401985 95.27502427 64.90264711 95.0451746 69.45139885 C94.86591516 72.9913338 94.68435426 76.5311477 94.50204277 80.07092667 C94.41581363 81.74762414 94.33010307 83.42434839 94.24495125 85.10110092 C93.98523753 90.19391215 93.70367352 95.28470269 93.3984375 100.375 C93.30070793 102.07803535 93.30070793 102.07803535 93.20100403 103.81547546 C93.13128891 104.80006241 93.06157379 105.78464935 92.98974609 106.79907227 C92.93394379 107.6252858 92.87814148 108.45149933 92.82064819 109.30274963 C92.08224114 112.92692191 89.88613812 114.40241244 86.9609375 116.4375 C85.97222656 117.15035156 84.98351562 117.86320312 83.96484375 118.59765625 C83.11792969 119.18417969 82.27101563 119.77070313 81.3984375 120.375 C80.7384375 121.035 80.0784375 121.695 79.3984375 122.375 C79.06972656 121.6221875 78.74101563 120.869375 78.40234375 120.09375 C69.30877804 99.78725097 57.54897807 82.09995872 42.4765625 65.69921875 C41.04919598 64.10282198 39.6746007 62.45814006 38.34765625 60.77734375 C35.41688692 57.16527333 31.93499147 54.37794872 28.3984375 51.375 C27.48191406 50.55902344 26.56539062 49.74304688 25.62109375 48.90234375 C10.58388013 35.63064277 -7.04221175 24.05473134 -25.6015625 16.375 C-24.45507794 15.22851544 -23.30826587 14.08235719 -22.16015625 12.9375 C-21.06385536 11.83845149 -19.97320075 10.73375612 -18.88671875 9.625 C-18.00306641 8.7278125 -18.00306641 8.7278125 -17.1015625 7.8125 C-16.555 7.25433594 -16.0084375 6.69617188 -15.4453125 6.12109375 C-14.836875 5.54488281 -14.2284375 4.96867187 -13.6015625 4.375 C-12.91594238 3.68672119 -12.23032227 2.99844238 -11.52392578 2.28930664 C-7.65644507 -0.24410324 -4.46358982 -0.13766187 0 0 Z " fill="#F1F5F3" transform="translate(606.6015625,297.625)"/>
<path d="M0 0 C7.98948301 0.0339978 13.72598366 2.00039323 20 7 C23.57789055 10.72963144 26.02196224 15.03344985 28.5625 19.5 C31.88389108 25.19759906 36.03174186 30.15103158 40.24243164 35.203125 C50 46.91861212 50 46.91861212 50 50 C50.66 50 51.32 50 52 50 C51.7834375 48.11667969 51.7834375 48.11667969 51.5625 46.1953125 C48.2312857 16.5374286 48.2312857 16.5374286 53 7 C56.54453168 8.41781267 57.8573491 9.89716538 59.625 13.25 C60.02976562 13.99765625 60.43453125 14.7453125 60.8515625 15.515625 C63.76928521 21.82743332 64.41849499 27.24886648 64.4375 34.125 C64.44221313 35.52298828 64.44221313 35.52298828 64.44702148 36.94921875 C64.33047648 43.6865742 63.33149464 48.61320684 60.19140625 54.625 C58.86612814 57.26686588 58.13317952 59.034536 58 62 C59.09105066 64.40090281 60.20934946 66.50795106 61.5625 68.75 C66.1724219 76.81430904 69.15166573 85.18526856 72 94 C72.96695048 89.86272009 73.19442353 85.86424772 73.375 81.625 C73.66048699 76.16630327 74.30546775 71.80329662 77 67 C80.17033042 67.33967826 80.99882607 67.99869191 83.1875 70.4375 C87.67451555 76.78121164 86.62048646 85.46670032 86 93 C84.8477089 98.4921701 83.346044 102.59206006 79.44091797 106.67675781 C76.4937514 110.18901138 76.44495727 112.93827838 76.58203125 117.53125 C76.59975838 118.60070862 76.59975838 118.60070862 76.61784363 119.69177246 C76.65879442 121.96247458 76.73337627 124.23033463 76.8125 126.5 C76.89667977 129.46854651 76.96496057 132.43701396 77.01953125 135.40625 C77.03380157 136.1273999 77.0480719 136.8485498 77.06277466 137.59155273 C77.13236411 144.526616 76.23883852 151.17310756 75 158 C75.6290625 157.05898438 76.258125 156.11796875 76.90625 155.1484375 C87.57331542 139.4987986 87.57331542 139.4987986 95.05078125 137.43359375 C97 137.125 97 137.125 100 137 C99.46065846 146.70814767 95.54795747 154.43932544 88.4609375 161.10546875 C84.0620438 164.49191866 76.70121378 170 71 170 C70.87625 170.51304687 70.7525 171.02609375 70.625 171.5546875 C67.09054966 184.67633439 60.81183477 197.28570839 54 209 C54.61746094 208.54109375 55.23492188 208.0821875 55.87109375 207.609375 C63.48105269 202.09591921 70.31232358 197.1755169 80 198 C80.85351001 200.89075713 81.24529 202.43128326 80.03125 205.24609375 C75.2901716 212.03115747 69.56482942 219.25449072 61 221 C59.33904297 220.91878906 59.33904297 220.91878906 57.64453125 220.8359375 C50.48404879 220.39239323 50.48404879 220.39239323 44.31982422 223.41113281 C40.92420673 227.26083381 38.22180854 231.58424807 35.44824219 235.890625 C33.21540369 239.14277008 30.59720579 241.96749808 27.875 244.8125 C25.31697654 247.50027828 23.05876544 249.91185185 21 253 C21.73863281 252.7834375 22.47726562 252.566875 23.23828125 252.34375 C31.48545729 250.08023027 39.61328492 248.59270215 48 251 C47.68587273 253.97766477 47.15830429 254.8685509 44.8125 256.81640625 C33.63849328 263.75360209 23.8493912 267.18998879 10.5390625 264.23046875 C5.99169214 263.93433757 3.59301151 265.5763335 0 268.0625 C-10.37208921 274.76593316 -23.39964359 281.61465153 -36 281 C-36 280.34 -36 279.68 -36 279 C-35.4652002 278.823479 -34.93040039 278.64695801 -34.37939453 278.46508789 C-31.96074202 277.66579184 -29.54286513 276.86417455 -27.125 276.0625 C-26.28324219 275.78470703 -25.44148437 275.50691406 -24.57421875 275.22070312 C-23.76855469 274.95322266 -22.96289062 274.68574219 -22.1328125 274.41015625 C-21.38918457 274.16402588 -20.64555664 273.91789551 -19.87939453 273.66430664 C-17.94577687 273.02437575 -17.94577687 273.02437575 -16 272 C-15.51567645 270.37279099 -15.11287472 268.72102356 -14.75 267.0625 C-12.26897078 257.52102941 -6.6123064 248.37954423 1 242 C2.32 242 3.64 242 5 242 C4.40805184 250.6819064 0.57389824 258.69781159 -4 266 C2.25416291 261.96362535 8.19659385 257.66014603 14 253 C14.61488281 252.51015625 15.22976563 252.0203125 15.86328125 251.515625 C19.43981152 248.6134286 20.83453098 247.37290136 21.39453125 242.7265625 C21.49362793 241.74526367 21.49362793 241.74526367 21.59472656 240.74414062 C22.71594477 229.83363157 24.46195803 217.7909633 33 210 C35.1875 209.29296875 35.1875 209.29296875 37 209 C37.49155247 217.06510168 36.04937325 224.21726112 34 232 C40.37429072 223.34761225 46.45008101 214.64626005 51.6875 205.25 C52.31954346 204.12585693 52.31954346 204.12585693 52.96435547 202.97900391 C55.90599653 197.77414312 55.90599653 197.77414312 57 192 C56.06331832 190.2969424 55.05578817 188.6318974 54 187 C49.87125779 173.88317291 50.52133441 162.19385777 54 149 C55.83203125 149.20703125 55.83203125 149.20703125 58 150 C59.44921875 152.07421875 59.44921875 152.07421875 60.6875 154.6875 C61.31205078 155.96173828 61.31205078 155.96173828 61.94921875 157.26171875 C63.93536161 162.43750368 64.11862563 167.37468814 64.0625 172.875 C64.05347656 174.02742187 64.04445313 175.17984375 64.03515625 176.3671875 C64.02355469 177.23601562 64.01195312 178.10484375 64 179 C71.2188432 159.98136806 71.2188432 159.98136806 73 140 C71.34592396 137.41964137 69.78026022 136.18426748 67.23046875 134.5078125 C59.79685358 129.48263657 56.50074599 119.19801004 54 111 C53.42738177 107.9474396 53.15812329 105.10975798 53 102 C59.04032178 102.76528964 62.3966195 108.57370215 66 113 C72.02941995 121.08092383 72.02941995 121.08092383 73 126 C72.9711487 116.73873164 71.57582226 108.36241671 69.125 99.4375 C68.86831543 98.49825684 68.61163086 97.55901367 68.34716797 96.59130859 C66.36330836 89.499319 66.36330836 89.499319 63 83 C60.90086263 82.10748346 60.90086263 82.10748346 58.5 82.0625 C46.90044593 80.31162391 38.5448235 71.35652408 31 63 C29 60 29 60 29 56 C34.35535861 56.55313563 38.36562585 58.4278891 43.0625 60.875 C43.75666016 61.22691406 44.45082031 61.57882812 45.16601562 61.94140625 C48.86397194 63.83077045 52.4681401 65.81065995 56 68 C50.62989983 57.89157615 44.47309425 48.72831376 37.37597656 39.75219727 C36.10279152 38.13089686 34.87905203 36.47109434 33.66015625 34.80859375 C30.33993101 31.30309897 26.93835352 29.61272631 22.625 27.5625 C11.01454285 21.6726757 5.31938617 14.9645768 0 3 C0 2.01 0 1.02 0 0 Z " fill="#FDFDFD" transform="translate(602,367)"/>
<path d="M0 0 C-0.60054201 3.76519596 -1.69361659 6.74072774 -3.4375 10.125 C-3.86933594 10.97320312 -4.30117188 11.82140625 -4.74609375 12.6953125 C-6 15 -6 15 -8 18 C-8.66 18 -9.32 18 -10 18 C-10 18.66 -10 19.32 -10 20 C-26.17128463 32 -26.17128463 32 -32 32 C-32.2578125 32.57105469 -32.515625 33.14210938 -32.78125 33.73046875 C-34.11771929 36.21921445 -35.67967262 38.15272633 -37.5 40.3125 C-41.00417781 44.63026206 -44.21281895 49.07626726 -47.3125 53.6875 C-47.73273438 54.30471924 -48.15296875 54.92193848 -48.5859375 55.55786133 C-51.24598797 59.56237058 -53.22694351 63.53006147 -55 68 C-54.34515625 67.55269531 -53.6903125 67.10539062 -53.015625 66.64453125 C-36.9466951 56 -36.9466951 56 -28 56 C-29.41884977 64.47422605 -37.92432595 71.36640976 -44.4140625 76.30859375 C-49.25914447 79.47765794 -54.32016373 81.80260881 -60.12890625 82.23046875 C-63.22318414 82.70771657 -63.22318414 82.70771657 -64.57421875 85.5546875 C-64.94160156 86.65039062 -65.30898438 87.74609375 -65.6875 88.875 C-66.0896875 90.05449219 -66.491875 91.23398437 -66.90625 92.44921875 C-68.39374571 97.27826733 -69.82609269 102.08426314 -71 107 C-71.309375 108.26457031 -71.309375 108.26457031 -71.625 109.5546875 C-72.94269086 115.42939259 -73.23014295 120.99071184 -73 127 C-72.62875 126.030625 -72.2575 125.06125 -71.875 124.0625 C-68.33413433 115.8773361 -62.61881528 107.96963511 -56 102 C-55.01 102 -54.02 102 -53 102 C-53.055132 115.50733878 -58.64422774 127.36014559 -68 137 C-68.72832031 137.49113281 -69.45664062 137.98226562 -70.20703125 138.48828125 C-72.16370963 139.85004278 -72.16370963 139.85004278 -72.56640625 142.03125 C-72.54804193 153.6375028 -68.75463768 165.10453271 -65 176 C-64.97421875 175.26136719 -64.9484375 174.52273438 -64.921875 173.76171875 C-64.41371885 164.67265308 -62.16638068 157.07119487 -58 149 C-56.68 149 -55.36 149 -54 149 C-51.63733984 155.34677686 -51.63254984 161.04573991 -51.625 167.75 C-51.60050781 168.87921875 -51.57601562 170.0084375 -51.55078125 171.171875 C-51.52787901 177.76772108 -52.23670827 182.88947541 -55.04052734 188.88769531 C-55.98257684 190.96164244 -56.65836101 192.74770274 -57 195 C-55.99985653 197.41776424 -54.96335475 199.54717699 -53.6875 201.8125 C-53.32938232 202.46541016 -52.97126465 203.11832031 -52.60229492 203.79101562 C-48.11717066 211.81147313 -43.02916796 219.51821463 -37.58740234 226.921875 C-34 231.80770753 -34 231.80770753 -34 234 C-33.34 234 -32.68 234 -32 234 C-32.7115625 232.3603125 -32.7115625 232.3603125 -33.4375 230.6875 C-35.57637405 225.75879023 -36.12747202 221.66519488 -36.0625 216.3125 C-36.05798828 215.61060547 -36.05347656 214.90871094 -36.04882812 214.18554688 C-36.03706927 212.45699462 -36.01913454 210.72848635 -36 209 C-30.17638464 211.67738249 -27.2539188 215.84364767 -24.8125 221.625 C-21.91568501 230.05742905 -21.65735492 239.16895567 -21 248 C-20.34 248 -19.68 248 -19 248 C-19 248.66 -19 249.32 -19 250 C-18.44828125 250.24105469 -17.8965625 250.48210937 -17.328125 250.73046875 C-14.47952826 252.28381429 -12.22184141 254.2114348 -9.75 256.3125 C-5.34280217 259.9802351 -0.94443005 263.10797488 4 266 C3.59007812 265.29875 3.18015625 264.5975 2.7578125 263.875 C-1.29253264 256.7432918 -4.52670424 250.42726791 -4 242 C1.10939148 242.69358255 3.50885856 246.25522369 6.7421875 249.96875 C10.90695421 255.56020149 14.6350479 262.19341105 15.30859375 269.21875 C15.71877769 272.21007244 15.71877769 272.21007244 18.44140625 273.609375 C19.47136719 273.98578125 20.50132812 274.3621875 21.5625 274.75 C22.64144531 275.15089844 23.72039062 275.55179688 24.83203125 275.96484375 C28.53857101 277.1759819 32.18562337 278.19311264 36 279 C36 279.66 36 280.32 36 281 C22.4990924 280.30167719 7.72714844 274.47716855 -2.65625 265.7734375 C-7.60913887 263.14655485 -12.01199158 263.8686327 -17.5 264.1875 C-29.04524365 264.55474953 -36.70614981 262.81972468 -45.85546875 255.51953125 C-47 254 -47 254 -47 250 C-37.17747938 249.55276888 -28.5176733 250.78842446 -19 253 C-19.44988281 252.65710938 -19.89976562 252.31421875 -20.36328125 251.9609375 C-25.05617498 248.14267126 -28.85094663 243.93046512 -32.5625 239.1875 C-33.04090332 238.58317139 -33.51930664 237.97884277 -34.01220703 237.35620117 C-36.15035771 234.60341503 -38.01517222 231.97231245 -39.6953125 228.90625 C-41.27288305 226.03193298 -42.44483655 224.06954624 -45 222 C-48.43032151 221.38626836 -51.5429902 221.18765233 -55.00976562 221.18725586 C-62.78057586 221.17367686 -67.03396196 218.56157831 -72.75 213.625 C-80.52 204.56 -80.52 204.56 -81 198 C-74.37983413 197.53138152 -70.39126894 198.77308412 -64.625 201.9375 C-63.91472656 202.31068359 -63.20445312 202.68386719 -62.47265625 203.06835938 C-60.64152995 204.03256725 -58.82003463 205.01501558 -57 206 C-56.34 206.33 -55.68 206.66 -55 207 C-55.50789063 206.01902344 -56.01578125 205.03804687 -56.5390625 204.02734375 C-61.69195782 193.96525415 -66.95947053 183.65649997 -69.8828125 172.6875 C-70.73081018 169.8821094 -70.73081018 169.8821094 -73.03125 168.8203125 C-73.8459375 168.59085938 -74.660625 168.36140625 -75.5 168.125 C-86.13520603 164.36507868 -92.9619615 156.93295091 -98 147 C-99.44382185 143.13705943 -100.2430396 140.1316732 -100 136 C-93.54068957 136.16562334 -89.52480721 139.77370438 -85 144 C-81.07161437 148.35991284 -78.01298258 152.45700448 -76 158 C-75.34 158 -74.68 158 -74 158 C-74.309375 157.34 -74.61875 156.68 -74.9375 156 C-77.17676324 149.67737438 -77.10673904 143.23992883 -76.88671875 136.625 C-76.85460323 135.04690513 -76.82405161 133.4687778 -76.79492188 131.890625 C-76.74556899 129.44115026 -76.68727224 126.99343747 -76.60229492 124.54492188 C-75.87572934 113.74205429 -75.87572934 113.74205429 -79.90234375 104.08984375 C-80.92597499 103.05102924 -81.95766784 102.02004911 -83 101 C-87.10096206 93.48156955 -87.15259919 84.38253956 -86 76 C-84.89424186 72.68727603 -83.6539109 70.29527429 -81 68 C-78.1875 67 -78.1875 67 -76 67 C-74.34766482 72.99839327 -73.45484607 78.81180672 -72.875 85 C-72.78863281 85.87011719 -72.70226562 86.74023438 -72.61328125 87.63671875 C-72.40355393 89.75729499 -72.20102158 91.87858079 -72 94 C-71.6596875 93.04222656 -71.319375 92.08445312 -70.96875 91.09765625 C-67.92563475 82.69524732 -64.5723634 74.61430314 -60.453125 66.67407227 C-58.9983934 63.75583293 -57.96679052 61.59010684 -58.15234375 58.29296875 C-59.01123266 55.96961488 -59.93001634 53.73437765 -61 51.5 C-65.55074195 41.99698005 -65.74013025 28.82618459 -62.3125 18.875 C-60.42350384 14.4402599 -58.00532348 10.75665434 -55 7 C-54.01 7.33 -53.02 7.66 -52 8 C-49.9804548 13.93786544 -49.71635648 19.45980356 -49.8125 25.6875 C-49.81894531 26.55729492 -49.82539063 27.42708984 -49.83203125 28.32324219 C-49.91393454 35.24663006 -50.2959213 42.11008702 -51 49 C-50.33355469 48.15179688 -49.66710937 47.30359375 -48.98046875 46.4296875 C-48.54057617 45.87007324 -48.10068359 45.31045898 -47.64746094 44.73388672 C-46.66146005 43.47846685 -45.67645821 42.22226178 -44.69238281 40.96533203 C-42.1727229 37.74984974 -39.64089357 34.54681011 -37.06640625 31.375 C-32.67140469 25.927738 -28.67359846 20.67344616 -25.3125 14.5 C-19.97142574 4.92685735 -11.11815922 -0.68070363 0 0 Z " fill="#FDFDFD" transform="translate(404,367)"/>
<path d="M0 0 C26.4643032 23.98327478 43.18058837 70.26519767 45 105 C45.10279508 109.54299084 45.09542626 114.08117612 45.0625 118.625 C45.05798828 119.81996094 45.05347656 121.01492188 45.04882812 122.24609375 C45.03715603 125.16411647 45.02078326 128.08203037 45 131 C44.33613281 131.31453125 43.67226563 131.6290625 42.98828125 131.953125 C34.83687712 135.90387853 29.78912002 139.8129717 24.6875 147.25 C24.23310547 147.8996875 23.77871094 148.549375 23.31054688 149.21875 C22.20045861 150.80792899 21.09930349 152.40334173 20 154 C18.86160996 150.58482989 19.20603201 149.3484948 19.953125 145.890625 C20.88270337 140.72664614 21.11620225 135.89006129 20.984375 130.671875 C20.9685437 129.94657593 20.9527124 129.22127686 20.93640137 128.47399902 C20.86406346 125.4718934 20.77935591 122.47122842 20.65722656 119.47070312 C20.10909619 105.17004339 20.10909619 105.17004339 23.8984375 100.1953125 C24.43130371 99.64891113 24.96416992 99.10250977 25.51318359 98.53955078 C30.55891366 93.31485886 30.31273792 85.62780017 30.4375 78.8125 C30.45989746 78.03986816 30.48229492 77.26723633 30.50537109 76.47119141 C30.48375974 71.19688481 29.48434699 68.17992827 26 64 C23.89960669 62.61131484 23.89960669 62.61131484 22 62 C20.038284 67.94284552 19.3937719 73.71648938 18.875 79.9375 C18.78863281 80.90751953 18.70226562 81.87753906 18.61328125 82.87695312 C18.40278881 85.25084011 18.19852115 87.62508706 18 90 C16 89 16 89 14.7734375 85.7109375 C14.30373036 84.26677845 13.83784555 82.82137276 13.375 81.375 C11.07572755 74.43519017 8.23203546 68.17182183 4.45263672 61.91162109 C2.91658161 59.26895361 1.97824319 57.48445172 2.1171875 54.390625 C3.07535573 51.79593934 4.2821037 49.45135702 5.5625 47 C9.83204189 36.99636406 10.13418606 23.26042277 6.25 13.0625 C5.19571438 10.89902259 5.19571438 10.89902259 4 9 C3.46246094 8.08541016 3.46246094 8.08541016 2.9140625 7.15234375 C1.46862648 4.85377445 -0.07923347 2.92076653 -2 1 C-1.34 0.67 -0.68 0.34 0 0 Z " fill="#C8E3D7" transform="translate(657,372)"/>
<path d="M0 0 C2.1875 0.5625 2.1875 0.5625 4.1875 2.5625 C6.51866732 21.58317497 1.66490699 40.7827557 -1.84130859 59.37744141 C-3.23781017 66.7996306 -4.56030511 74.2344174 -5.85369873 81.67520142 C-6.23906213 83.87506082 -6.6357923 86.07264258 -7.03369141 88.27026367 C-8.30033747 95.41589132 -9.21227228 102.29292827 -8.8125 109.5625 C-8.1525 109.5625 -7.4925 109.5625 -6.8125 109.5625 C-7.0625 111.4375 -7.0625 111.4375 -7.8125 113.5625 C-9.875 114.8125 -9.875 114.8125 -11.8125 115.5625 C-14.05460372 113.32039628 -13.10679679 108.7836916 -13.11566162 105.76672363 C-12.97420481 96.72464921 -11.27119425 87.93482619 -9.62139893 79.06747437 C-9.05137826 76.00270291 -8.49888771 72.93519917 -7.95068359 69.86645508 C-6.91759944 64.09607435 -5.86668698 58.32905595 -4.8125 52.5625 C-1.83721257 36.24385043 0.14797027 20.12736406 1.1875 3.5625 C-7.72200055 8.31124759 -11.97791485 18.17531579 -16.125 27 C-16.58938477 27.98081543 -17.05376953 28.96163086 -17.53222656 29.97216797 C-26.13589417 48.5473405 -32.51563731 68.1089474 -38.8125 87.5625 C-39.4725 87.5625 -40.1325 87.5625 -40.8125 87.5625 C-41.02976185 81.8729552 -40.40649728 76.72875852 -39.38964844 71.13427734 C-36.50717364 55.1684884 -36.37459012 39.71463739 -36.8125 23.5625 C-39.86179996 24.14117621 -40.60788473 24.30749768 -42.63671875 26.8359375 C-61.28922967 57.8843519 -72.11683039 93.1712458 -82.8125 127.5625 C-84.1325 127.5625 -85.4525 127.5625 -86.8125 127.5625 C-85.51942114 114.64444544 -82.95292743 102.15753532 -80.125 89.5 C-79.6744349 87.45959018 -79.22440806 85.41906143 -78.77490234 83.37841797 C-77.66668883 78.35708699 -76.54950676 73.33781019 -75.42816162 68.31939697 C-74.85878913 65.76978005 -74.29144229 63.21972453 -73.72509766 60.66943359 C-68.30307599 36.26409142 -68.30307599 36.26409142 -65.375 25.3125 C-63.81846038 19.29829586 -63.34026033 13.75408685 -63.8125 7.5625 C-70.15793117 8.40707578 -73.60933453 11.94602326 -77.8125 16.5625 C-80.79507208 20.73705071 -83.35207903 25.06376188 -85.8125 29.5625 C-86.27011719 30.35914063 -86.72773438 31.15578125 -87.19921875 31.9765625 C-90.20958525 37.7860417 -91.08200476 44.11229565 -89.8125 50.5625 C-87.267618 53.90409055 -85.1577205 55.08981403 -81.0625 55.8125 C-80.26328125 55.96203125 -79.4640625 56.1115625 -78.640625 56.265625 C-78.03734375 56.36359375 -77.4340625 56.4615625 -76.8125 56.5625 C-76.8125 57.5525 -76.8125 58.5425 -76.8125 59.5625 C-82.95411557 60.06385637 -85.91535091 59.04700993 -90.8125 55.5625 C-94.77981779 50.11207276 -94.63451323 45.07597629 -93.8125 38.5625 C-90.0546925 25.46862852 -81.66101208 12.4173538 -70.203125 4.8359375 C-67.43494455 3.36138386 -65.90259266 3.07459063 -62.8125 3.5625 C-60.61148049 5.2013314 -59.89506789 6.12734488 -59.37890625 8.84765625 C-59.36658688 17.60672902 -61.1252736 25.63067567 -63.20315552 34.08361816 C-63.82448838 36.61127009 -64.42989371 39.14227233 -65.03100586 41.67480469 C-65.65616832 44.30843837 -66.2821282 46.94184364 -66.91282654 49.57415771 C-68.97227716 58.17478083 -70.92679038 66.79754774 -72.8449707 75.43066406 C-73.36778732 77.78008779 -73.8956048 80.12834934 -74.42382812 82.4765625 C-74.74248975 83.90618266 -75.06086533 85.33586662 -75.37890625 86.765625 C-75.65677979 88.00989258 -75.93465332 89.25416016 -76.22094727 90.53613281 C-76.90841794 93.53927358 -76.90841794 93.53927358 -76.8125 96.5625 C-76.50699219 95.57636719 -76.20148438 94.59023438 -75.88671875 93.57421875 C-55.41847269 29.15400046 -55.41847269 29.15400046 -39.8125 19.5625 C-37.25 19.5 -37.25 19.5 -34.8125 20.5625 C-31.92889553 25.12245826 -31.36686058 29.03685031 -31.5 34.3125 C-31.51256836 35.40002563 -31.51256836 35.40002563 -31.52539062 36.50952148 C-31.70510511 44.91386932 -32.72170078 53.23541671 -33.8125 61.5625 C-33.57917969 60.76972656 -33.34585938 59.97695313 -33.10546875 59.16015625 C-15.58006247 3.11601249 -15.58006247 3.11601249 0 0 Z " fill="#10100F" transform="translate(488.8125,451.4375)"/>
<path d="M0 0 C0 0.99 0 1.98 0 3 C-6.36791397 4.93917037 -12.73592605 6.87801828 -19.10400391 8.81665039 C-21.26678651 9.47510615 -23.4295473 10.13363358 -25.59228516 10.79223633 C-28.71511076 11.7431936 -31.8380168 12.69388632 -34.9609375 13.64453125 C-35.91551849 13.9352803 -36.87009949 14.22602936 -37.85360718 14.52558899 C-43.89799956 16.36520824 -49.94689837 18.18924354 -56 20 C-59.41006269 34.38857851 -62.78239285 48.77583715 -65.8125 63.25 C-68.39802895 75.5500015 -71.26812566 87.77564158 -74.1875 100 C-74.40387115 100.90641235 -74.62024231 101.81282471 -74.84317017 102.7467041 C-76.04680864 107.78264836 -77.25804646 112.81668538 -78.47879028 117.84851074 C-78.95210745 119.80230546 -79.42146736 121.75705778 -79.89038086 123.71191406 C-80.1456958 124.76088867 -80.40101074 125.80986328 -80.6640625 126.890625 C-80.97851318 128.1904834 -80.97851318 128.1904834 -81.29931641 129.51660156 C-82.5119789 133.81458167 -84.21771782 137.9107028 -86 142 C-86.99 142 -87.98 142 -89 142 C-89 137.71 -89 133.42 -89 129 C-88.01 129.33 -87.02 129.66 -86 130 C-80.41581252 110.33900657 -75.8804424 90.52841746 -71.55517578 70.56158447 C-69.95175192 63.16337691 -68.33923565 55.76715538 -66.72357178 48.37161255 C-66.13570092 45.67410233 -65.55224154 42.97566541 -64.96923828 40.27709961 C-64.60724632 38.61438792 -64.24511156 36.9517073 -63.8828125 35.2890625 C-63.72167969 34.53751389 -63.56054688 33.78596527 -63.39453125 33.01164246 C-62.49588964 28.90839826 -61.40708449 24.95805781 -60 21 C-63.96709328 22.34555931 -67.93222914 23.69670441 -71.89575195 25.05273438 C-73.24029757 25.51190241 -74.58533868 25.96962247 -75.9309082 26.42578125 C-87.3526535 29.86502773 -87.3526535 29.86502773 -98 35 C-98.33 35.99 -98.66 36.98 -99 38 C-100.32 37.67 -101.64 37.34 -103 37 C-102.81689453 35.18164062 -102.81689453 35.18164062 -102 33 C-93.83272505 27.30335796 -83.52935768 24.55505453 -74.125 21.5 C-72.58921689 20.99390725 -71.05349259 20.48763604 -69.51782227 19.98120117 C-51.25371303 13.9945568 -32.84222764 8.46462084 -14.43379211 2.94136047 C-13.62798203 2.69943466 -12.82217194 2.45750885 -11.99194336 2.20825195 C-11.29000351 1.99795853 -10.58806366 1.7876651 -9.86485291 1.57099915 C-6.35362775 0.49589743 -3.68688565 -0.09964556 0 0 Z " fill="#141513" transform="translate(621,435)"/>
<path d="M0 0 C1.9375 0.8125 1.9375 0.8125 3.9375 2.8125 C4.1328125 5.1953125 4.1328125 5.1953125 4.0625 7.9375 C4.04445313 8.84757813 4.02640625 9.75765625 4.0078125 10.6953125 C3.98460937 11.39398437 3.96140625 12.09265625 3.9375 12.8125 C10.33666302 10.9509253 14.05015018 8.2576426 18.76171875 3.5546875 C21.19484282 1.60644094 22.87540962 1.16643689 25.9375 0.8125 C25.6075 3.7825 25.2775 6.7525 24.9375 9.8125 C25.5975 10.1425 26.2575 10.4725 26.9375 10.8125 C26.9375 8.5025 26.9375 6.1925 26.9375 3.8125 C27.9275 3.8125 28.9175 3.8125 29.9375 3.8125 C29.9375 6.7825 29.9375 9.7525 29.9375 12.8125 C34.66129076 10.96003304 37.96381971 9.01352023 41.9375 5.8125 C42.9275 5.8125 43.9175 5.8125 44.9375 5.8125 C43.43478445 9.86983199 40.68987041 12.74277148 36.9375 14.8125 C34.55218044 15.22141192 32.30954509 15.37479244 29.890625 15.37890625 C29.24609375 15.52199219 28.6015625 15.66507813 27.9375 15.8125 C26.81771154 17.71344269 26.81771154 17.71344269 25.9375 19.8125 C22.9375 21.8125 22.9375 21.8125 20.4375 21.75 C17.9375 20.8125 17.9375 20.8125 16.125 18.4375 C14.9375 15.8125 14.9375 15.8125 14.9375 12.8125 C13.885625 13.286875 12.83375 13.76125 11.75 14.25 C9.48259266 15.23741933 7.71380922 15.84891478 5.25 16.25 C2.75080774 16.63487047 2.75080774 16.63487047 1 18.875 C-1.0625 20.8125 -1.0625 20.8125 -4.125 21.25 C-7.4191223 20.75938604 -8.10066379 20.39984921 -10.0625 17.8125 C-10.75205304 14.42219754 -10.65598931 11.21553505 -10.0625 7.8125 C-7.75 4.875 -7.75 4.875 -5.0625 2.8125 C-4.546875 2.19375 -4.03125 1.575 -3.5 0.9375 C-2.0625 -0.1875 -2.0625 -0.1875 0 0 Z " fill="#080908" transform="translate(571.0625,505.1875)"/>
<path d="M0 0 C0.33 0 0.66 0 1 0 C1 3.96 1 7.92 1 12 C1.66 12 2.32 12 3 12 C3.14400237 17.21305636 2.62527605 22.07090398 1.6796875 27.203125 C1.47076118 28.37852341 1.47076118 28.37852341 1.25761414 29.57766724 C0.95771753 31.26112582 0.65514269 32.94410912 0.35012817 34.62664795 C-0.13081625 37.28211361 -0.6037461 39.9388949 -1.07446289 42.59619141 C-2.19778449 48.93198557 -3.33085793 55.26602419 -4.46588135 61.59973145 C-5.33290309 66.44094242 -6.19257446 71.28333645 -7.04119873 76.12780762 C-7.30240358 77.60894735 -7.56685427 79.08951887 -7.83477783 80.56945801 C-9.25407231 88.40998952 -10.43970905 96.00420663 -10 104 C-9.34 104 -8.68 104 -8 104 C-8.25 105.875 -8.25 105.875 -9 108 C-11.0625 109.25 -11.0625 109.25 -13 110 C-15.24210372 107.75789628 -14.29429679 103.2211916 -14.30316162 100.20422363 C-14.16170241 91.16199588 -12.45869014 82.37193822 -10.80889893 73.50442505 C-10.23907495 70.44127113 -9.6865086 67.37542023 -9.13818359 64.30834961 C-8.25561622 59.38176748 -7.36119339 54.45745223 -6.46203613 49.53387451 C-3.45482832 33.04190195 -1.1616059 16.73468013 0 0 Z " fill="#171715" transform="translate(490,457)"/>
<path d="M0 0 C1.32 0.33 2.64 0.66 4 1 C4.43261434 4.45473454 4.22689611 5.69700499 2.1015625 8.53515625 C1.28429687 9.36917969 0.46703125 10.20320313 -0.375 11.0625 C-5.33198858 16.01106966 -5.33198858 16.01106966 -7.23046875 22.5078125 C-7.20919922 23.80332031 -7.20919922 23.80332031 -7.1875 25.125 C-7.18105469 25.99382813 -7.17460937 26.86265625 -7.16796875 27.7578125 C-7.1397507 30.0364545 -7.1397507 30.0364545 -6 32 C0.4030883 31.83992279 3.78440412 28.40435391 8 24 C10.18044193 21.35890132 12.28434342 18.68367643 14.3359375 15.94140625 C14.88507812 15.30074219 15.43421875 14.66007812 16 14 C16.66 14 17.32 14 18 14 C16.45505859 22.02659215 8.97768569 28.84515364 3 34 C-0.46424423 36.03895517 -2.96138123 36.42964029 -7 36 C-9.55949546 34.14657225 -9.97918798 33.06243607 -11 30 C-12.22371536 20.94450632 -9.54963674 12.07090963 -4.33203125 4.6171875 C-2.96314472 3.01094059 -1.49229345 1.49229345 0 0 Z " fill="#0E0F0E" transform="translate(504,496)"/>
<path d="M0 0 C0.99 0 1.98 0 3 0 C3 2.97 3 5.94 3 9 C7.72379076 7.14753304 11.02631971 5.20102023 15 2 C15.99 2 16.98 2 18 2 C16.49728445 6.05733199 13.75237041 8.93027148 10 11 C7.61468044 11.40891192 5.37204509 11.56229244 2.953125 11.56640625 C2.30859375 11.70949219 1.6640625 11.85257813 1 12 C-0.11978846 13.90094269 -0.11978846 13.90094269 -1 16 C-4 18 -4 18 -6.5 17.9375 C-9.81406146 16.69472695 -10.53897257 15.1527434 -12 12 C-12 11.34 -12 10.68 -12 10 C-11.34 10 -10.68 10 -10 10 C-9.34 8.02 -8.68 6.04 -8 4 C-7.34 4 -6.68 4 -6 4 C-4.61061923 5.96147874 -3.2739589 7.96166576 -2 10 C-1.34 6.7 -0.68 3.4 0 0 Z " fill="#121412" transform="translate(598,509)"/>
<path d="M0 0 C2.5625 0.9375 2.5625 0.9375 4.2109375 3.44140625 C5.87977999 7.75820981 5.90103256 11.24279705 5.75 15.8125 C5.72969727 16.988125 5.72969727 16.988125 5.70898438 18.1875 C5.67391789 20.10446782 5.62012072 22.02107751 5.5625 23.9375 C5.2325 23.9375 4.9025 23.9375 4.5625 23.9375 C4.2325 18.6575 3.9025 13.3775 3.5625 7.9375 C3.2325 12.2275 2.9025 16.5175 2.5625 20.9375 C2.2325 20.9375 1.9025 20.9375 1.5625 20.9375 C1.2325 15.3275 0.9025 9.7175 0.5625 3.9375 C-3.56267077 4.52276847 -3.56267077 4.52276847 -5.4375 7.59765625 C-6.0975 8.72042969 -6.7575 9.84320313 -7.4375 11 C-7.78490234 11.58547607 -8.13230469 12.17095215 -8.49023438 12.77416992 C-11.01300679 17.07010109 -13.31709057 21.43162995 -15.4375 25.9375 C-16.4275 25.9375 -17.4175 25.9375 -18.4375 25.9375 C-17.85404929 21.39859667 -15.96491845 17.88919438 -13.6875 14 C-13.35234375 13.40509766 -13.0171875 12.81019531 -12.671875 12.19726562 C-5.55131488 -0.14234141 -5.55131488 -0.14234141 0 0 Z " fill="#151613" transform="translate(451.4375,471.0625)"/>
<path d="M0 0 C2.80415947 1.40207974 3.02790535 3.43581763 4.1328125 6.2265625 C4.99384716 8.24050036 4.99384716 8.24050036 7.25 10.1875 C7.8275 10.785625 8.405 11.38375 9 12 C8.875 14.1875 8.875 14.1875 8 16 C5.20129973 17.39935013 3.09501208 17.25265405 0 17 C-2.27541524 15.35338804 -2.92309785 14.45161162 -3.3984375 11.66015625 C-3.39070312 10.80292969 -3.38296875 9.94570313 -3.375 9.0625 C-3.38273438 8.20785156 -3.39046875 7.35320313 -3.3984375 6.47265625 C-2.9319174 3.5774874 -1.91238222 2.18052047 0 0 Z " fill="#0C0D0C" transform="translate(564,509)"/>
<path d="M0 0 C-0.14308594 0.93972656 -0.14308594 0.93972656 -0.2890625 1.8984375 C-0.45535156 3.12433594 -0.45535156 3.12433594 -0.625 4.375 C-0.74101563 5.18710937 -0.85703125 5.99921875 -0.9765625 6.8359375 C-0.98429688 7.55007813 -0.99203125 8.26421875 -1 9 C-0.34 9.66 0.32 10.32 1 11 C0.34 12.32 -0.32 13.64 -1 15 C-5 9.25 -5 9.25 -5 7 C-5.66 7 -6.32 7 -7 7 C-7.66 8.98 -8.32 10.96 -9 13 C-11.64 13.33 -14.28 13.66 -17 14 C-17.33 13.01 -17.66 12.02 -18 11 C-17.195625 10.484375 -16.39125 9.96875 -15.5625 9.4375 C-11.8633079 6.99779473 -8.47129086 4.20265017 -5.05078125 1.390625 C-3 0 -3 0 0 0 Z " fill="#0D0F0D" transform="translate(597,506)"/>
<path d="M0 0 C0.33 0 0.66 0 1 0 C1 3.96 1 7.92 1 12 C1.66 12 2.32 12 3 12 C3.30473766 18.63756722 2.14592515 24.91424367 1 31.4375 C0.80921875 32.55060547 0.6184375 33.66371094 0.421875 34.81054688 C-0.04692365 37.54129903 -0.52101904 40.27101871 -1 43 C-1.99 42.34 -2.98 41.68 -4 41 C-3.52160792 35.76286564 -2.95007279 30.54642938 -2.26464844 25.33203125 C-1.15922054 16.89651506 -0.46384271 8.4956454 0 0 Z " fill="#252624" transform="translate(490,457)"/>
<path d="M0 0 C0 0.66 0 1.32 0 2 C-1.21558594 2.47050781 -2.43117188 2.94101562 -3.68359375 3.42578125 C-5.26846156 4.05410163 -6.85308448 4.68303996 -8.4375 5.3125 C-9.23994141 5.62123047 -10.04238281 5.92996094 -10.86914062 6.24804688 C-11.63291016 6.55419922 -12.39667969 6.86035156 -13.18359375 7.17578125 C-14.24404907 7.59210815 -14.24404907 7.59210815 -15.32592773 8.0168457 C-17.35214643 8.95993609 -17.35214643 8.95993609 -18 12 C-19.32 11.67 -20.64 11.34 -22 11 C-21.85546875 9.1953125 -21.85546875 9.1953125 -21 7 C-18.48828125 5.3671875 -18.48828125 5.3671875 -15.3125 3.875 C-14.27738281 3.37742187 -13.24226562 2.87984375 -12.17578125 2.3671875 C-3.76328502 -1.25442834 -3.76328502 -1.25442834 0 0 Z " fill="#141715" transform="translate(540,461)"/>
<path d="M0 0 C0.66 0.33 1.32 0.66 2 1 C2.02929977 4.35414799 2.0468989 7.70826253 2.0625 11.0625 C2.07087891 12.00544922 2.07925781 12.94839844 2.08789062 13.91992188 C2.10581103 19.0630768 1.89259611 23.93258427 1 29 C0.34 29 -0.32 29 -1 29 C-1.12276617 19.26055028 -0.83779436 9.70943816 0 0 Z " fill="#050504" transform="translate(454,478)"/>
<path d="M0 0 C0.33 0 0.66 0 1 0 C1.47759236 7.83605243 0.7170235 15.58688649 -2 23 C-2.99 23.33 -3.98 23.66 -5 24 C-3.66908213 3.66908213 -3.66908213 3.66908213 0 0 Z " fill="#0E0C0B" transform="translate(427,464)"/>
<path d="M0 0 C1.32 0.33 2.64 0.66 4 1 C1.42867609 9.69651012 -1.28412724 18.347852 -4 27 C-4.33 27 -4.66 27 -5 27 C-4.39828638 20.67250629 -3.37848091 14.62404348 -1.9375 8.4375 C-1.75123047 7.61958984 -1.56496094 6.80167969 -1.37304688 5.95898438 C-0.91979313 3.97164104 -0.46053788 1.98566799 0 0 Z " fill="#ACC2BA" transform="translate(415,527)"/>
<path d="M0 0 C2.97 0.495 2.97 0.495 6 1 C5.14285714 9.57142857 5.14285714 9.57142857 3 13 C2.01 13 1.02 13 0 13 C0 8.71 0 4.42 0 0 Z " fill="#0A0A0A" transform="translate(532,564)"/>
<path d="M0 0 C0.66 0.33 1.32 0.66 2 1 C1.79503906 1.82242188 1.59007812 2.64484375 1.37890625 3.4921875 C-0.27158004 10.33104455 -1.54023916 16.97675688 -2 24 C-2.33 24 -2.66 24 -3 24 C-3.144375 23.05125 -3.28875 22.1025 -3.4375 21.125 C-3.82935399 18.1065506 -3.82935399 18.1065506 -5 16 C-4.63703532 13.44182496 -4.20589906 10.96381577 -3.6875 8.4375 C-3.55666016 7.73947266 -3.42582031 7.04144531 -3.29101562 6.32226562 C-2.93166329 4.53244795 -2.47257482 2.76330782 -2 1 C-1.34 0.67 -0.68 0.34 0 0 Z " fill="#1B1D1C" transform="translate(412,534)"/>
<path d="M0 0 C2.58875378 0.94920972 3.77066189 1.5859173 5.125 4.03125 C6.29953897 8.01629294 6.21496214 11.68462198 6.125 15.8125 C6.11597656 16.60076172 6.10695313 17.38902344 6.09765625 18.20117188 C6.07422504 20.13424666 6.03835838 22.0671638 6 24 C5.67 24 5.34 24 5 24 C4.67 18.72 4.34 13.44 4 8 C3.67 12.29 3.34 16.58 3 21 C2.67 21 2.34 21 2 21 C1.67 14.73 1.34 8.46 1 2 C0.34 1.67 -0.32 1.34 -1 1 C-0.67 0.67 -0.34 0.34 0 0 Z " fill="#3E4641" transform="translate(451,471)"/>
<path d="M0 0 C-0.33 0.99 -0.66 1.98 -1 3 C-3.87109375 4.16796875 -3.87109375 4.16796875 -7.4375 5.1875 C-9.19900391 5.70376953 -9.19900391 5.70376953 -10.99609375 6.23046875 C-14 7 -14 7 -16 7 C-16 6.34 -16 5.68 -16 5 C-16.66 4.67 -17.32 4.34 -18 4 C-15.37764986 3.13683464 -12.75266548 2.28419221 -10.125 1.4375 C-9.37863281 1.19064453 -8.63226562 0.94378906 -7.86328125 0.68945312 C-2.2265625 -1.11328125 -2.2265625 -1.11328125 0 0 Z " fill="#181B19" transform="translate(582,447)"/>
<path d="M0 0 C2.86724686 0.57344937 3.8614515 0.8614515 6 3 C6 4.32 6 5.64 6 7 C5.34 7 4.68 7 4 7 C4 8.32 4 9.64 4 11 C3.01 11 2.02 11 1 11 C-0.20272819 8.59454362 -0.10071472 7.05003047 -0.0625 4.375 C-0.05347656 3.55773437 -0.04445313 2.74046875 -0.03515625 1.8984375 C-0.02355469 1.27195312 -0.01195312 0.64546875 0 0 Z " fill="#1D1E1C" transform="translate(569,505)"/>
<path d="M0 0 C2.5 2.25 2.5 2.25 5 5 C5 6.32 5 7.64 5 9 C3.02 9.99 3.02 9.99 1 11 C-1 9 -1 9 -1.23046875 7.08984375 C-1.11111111 1.11111111 -1.11111111 1.11111111 0 0 Z " fill="#B4CBC0" transform="translate(565,513)"/>
<path d="M0 0 C0.66 0 1.32 0 2 0 C6.09030544 5.14209827 6.09030544 5.14209827 5.75 8.375 C5.5025 8.91125 5.255 9.4475 5 10 C3.35 10 1.7 10 0 10 C-1.36952673 7.26094655 -1.12621361 5.02912668 -1 2 C-0.67 1.34 -0.34 0.68 0 0 Z " fill="#B8CFC5" transform="translate(590,513)"/>
<path d="M0 0 C2.17372769 3.26059153 2.1443958 4.17636046 1.4921875 7.8828125 C0.53893328 11.98331877 -0.71781731 15.9921711 -2 20 C-2.33 20 -2.66 20 -3 20 C-2.88581333 17.41577541 -2.75907638 14.83320487 -2.625 12.25 C-2.5940625 11.52039063 -2.563125 10.79078125 -2.53125 10.0390625 C-2.3251506 6.26057344 -2.08487157 3.22053332 0 0 Z " fill="#ABC1B9" transform="translate(457,496)"/>
<path d="M0 0 C0.33 0 0.66 0 1 0 C1.21192221 5.19209404 0.5912689 9.126739 -1 14 C-1.66 14 -2.32 14 -3 14 C-3.19263454 9.18413661 -2.81361417 5.48069384 -1 1 C-0.67 0.67 -0.34 0.34 0 0 Z " fill="#0E0D0C" transform="translate(554,491)"/>
<path d="M0 0 C0.33 0 0.66 0 1 0 C1 1.98 1 3.96 1 6 C2.32 5.67 3.64 5.34 5 5 C4.75 6.875 4.75 6.875 4 9 C1.9375 10.25 1.9375 10.25 0 11 C-1 10 -1 10 -1.1328125 7.96875 C-1.13023437 7.1540625 -1.12765625 6.339375 -1.125 5.5 C-1.12757813 4.6853125 -1.13015625 3.870625 -1.1328125 3.03125 C-1 1 -1 1 0 0 Z " fill="#0A0A0A" transform="translate(477,556)"/>
<path d="M0 0 C0.66 0 1.32 0 2 0 C2.19294408 4.82360189 1.75747614 8.49646738 0 13 C-0.66 13 -1.32 13 -2 13 C-1.85915204 11.20793453 -1.71216299 9.41635083 -1.5625 7.625 C-1.48128906 6.62726562 -1.40007813 5.62953125 -1.31640625 4.6015625 C-1 2 -1 2 0 0 Z " fill="#131311" transform="translate(544,531)"/>
<path d="M0 0 C0.99 0 1.98 0 3 0 C2.45400145 3.9129896 1.89829296 7.50314454 0 11 C-2.07421875 11.63671875 -2.07421875 11.63671875 -4 12 C-2.66666667 8 -1.33333333 4 0 0 Z " fill="#181615" transform="translate(425,512)"/>
<path d="M0 0 C3.96 0.33 7.92 0.66 12 1 C12 1.99 12 2.98 12 4 C7.01137151 4.29344873 4.03770942 4.05887078 0 1 C0 0.67 0 0.34 0 0 Z " fill="#111411" transform="translate(400,507)"/>
<path d="M0 0 C0.33 0.66 0.66 1.32 1 2 C1.66 2 2.32 2 3 2 C2.01 5.63 1.02 9.26 0 13 C-0.99 12.67 -1.98 12.34 -3 12 C-2.01 8.04 -1.02 4.08 0 0 Z " fill="#181614" transform="translate(415,538)"/>
<path d="M0 0 C1.9375 0.3125 1.9375 0.3125 4 1 C4.33 1.99 4.66 2.98 5 4 C4.34 4 3.68 4 3 4 C3 6.31 3 8.62 3 11 C2.01 10.67 1.02 10.34 0 10 C-0.25 4.375 -0.25 4.375 2 1 C1.34 0.67 0.68 0.34 0 0 Z " fill="#727F7A" transform="translate(595,505)"/>
<path d="M0 0 C0.66 0.33 1.32 0.66 2 1 C0.35 2.65 -1.3 4.3 -3 6 C-2.67 6.66 -2.34 7.32 -2 8 C-3.98 8.66 -5.96 9.32 -8 10 C-8.33 9.01 -8.66 8.02 -9 7 C-8.071875 6.401875 -7.14375 5.80375 -6.1875 5.1875 C-3.79745282 3.54727155 -1.91529747 2.1281083 0 0 Z " fill="#202422" transform="translate(588,510)"/>
<path d="M0 0 C0.99 0.33 1.98 0.66 3 1 C2.01 1.495 2.01 1.495 1 2 C1 3.32 1 4.64 1 6 C-1 8.25 -1 8.25 -3 10 C-2.67 8.35 -2.34 6.7 -2 5 C-2.99 5.495 -2.99 5.495 -4 6 C-2.84826645 3.53199953 -1.95216435 1.95216435 0 0 Z " fill="#414646" transform="translate(504,496)"/>
<path d="M0 0 C2 3.75 2 3.75 2 6 C3.32 6.33 4.64 6.66 6 7 C5.01 7 4.02 7 3 7 C3 7.66 3 8.32 3 9 C1.0625 8.3125 1.0625 8.3125 -1 7 C-1.75 4.375 -1.75 4.375 -2 2 C-1.34 2 -0.68 2 0 2 C0 1.34 0 0.68 0 0 Z " fill="#1F201E" transform="translate(588,517)"/>
<path d="M0 0 C0.33 0 0.66 0 1 0 C1.125 7.625 1.125 7.625 0 11 C-0.66 11 -1.32 11 -2 11 C-2.25 3.375 -2.25 3.375 0 0 Z " fill="#090706" transform="translate(487,497)"/>
<path d="M0 0 C0.99 0.33 1.98 0.66 3 1 C2.67 3.31 2.34 5.62 2 8 C1.34 8 0.68 8 0 8 C-0.66 8.99 -1.32 9.98 -2 11 C-1.125 3.375 -1.125 3.375 0 0 Z " fill="#1E1D1B" transform="translate(560,459)"/>
<path d="M0 0 C0.66 0 1.32 0 2 0 C1.43416161 3.28186266 0.58727596 4.89184922 -2 7 C-4.1875 8.1875 -4.1875 8.1875 -6 9 C-4.4722133 5.56247993 -2.49818944 2.81046312 0 0 Z " fill="#151413" transform="translate(520,510)"/>
<path d="M0 0 C1.32 0 2.64 0 4 0 C3.34 2.97 2.68 5.94 2 9 C1.01 8.67 0.02 8.34 -1 8 C-0.67 5.36 -0.34 2.72 0 0 Z " fill="#1D1D1B" transform="translate(417,504)"/>
<path d="M0 0 C0.33 0.66 0.66 1.32 1 2 C0.22265625 3.7265625 0.22265625 3.7265625 -0.9375 5.625 C-1.618125 6.73875 -2.29875 7.8525 -3 9 C-3.99 9 -4.98 9 -6 9 C-4.83857315 4.64464931 -3.92300495 2.35380297 0 0 Z " fill="#0C0B0A" transform="translate(444,478)"/>
<path d="M0 0 C1.65 0 3.3 0 5 0 C3.125 5.75 3.125 5.75 2 8 C1.34 8 0.68 8 0 8 C0.33 6.35 0.66 4.7 1 3 C0.34 2.67 -0.32 2.34 -1 2 C-0.67 1.34 -0.34 0.68 0 0 Z " fill="#060706" transform="translate(561,452)"/>
<path d="M0 0 C0.66 0.33 1.32 0.66 2 1 C2.625 3.0625 2.625 3.0625 3 5 C2.34 5 1.68 5 1 5 C0.67 6.98 0.34 8.96 0 11 C-0.33 11 -0.66 11 -1 11 C-1.59732819 8.23735711 -2 5.83967231 -2 3 C-1.34 2.01 -0.68 1.02 0 0 Z " fill="#262827" transform="translate(564,509)"/>
<path d="M0 0 C0.33 1.32 0.66 2.64 1 4 C1.66 4 2.32 4 3 4 C2.67 6.64 2.34 9.28 2 12 C1.01 11.34 0.02 10.68 -1 10 C-0.67 6.7 -0.34 3.4 0 0 Z " fill="#252522" transform="translate(484,504)"/>
<path d="M0 0 C0.33 0.66 0.66 1.32 1 2 C1.66 2 2.32 2 3 2 C2.67 4.64 2.34 7.28 2 10 C1.01 9.67 0.02 9.34 -1 9 C-0.67 6.03 -0.34 3.06 0 0 Z " fill="#1C1C19" transform="translate(421,486)"/>
<path d="M0 0 C0.33 0.66 0.66 1.32 1 2 C1.99 1.67 2.98 1.34 4 1 C3.34 3.64 2.68 6.28 2 9 C1.01 8.67 0.02 8.34 -1 8 C-0.67 5.36 -0.34 2.72 0 0 Z " fill="#252625" transform="translate(537,558)"/>
<path d="M0 0 C0.7425 0.0825 1.485 0.165 2.25 0.25 C1.92 1.24 1.59 2.23 1.25 3.25 C-1.39 3.58 -4.03 3.91 -6.75 4.25 C-3.42692308 0.31153846 -3.42692308 0.31153846 0 0 Z " fill="#090B0A" transform="translate(586.75,444.75)"/>
<path d="M0 0 C0.33 0.66 0.66 1.32 1 2 C1.66 2 2.32 2 3 2 C2.67 4.64 2.34 7.28 2 10 C0.4375 8.9375 0.4375 8.9375 -1 7 C-0.6875 3.3125 -0.6875 3.3125 0 0 Z " fill="#282826" transform="translate(550,503)"/>
<path d="M0 0 C0.66 0.33 1.32 0.66 2 1 C1.67 3.64 1.34 6.28 1 9 C0.34 9 -0.32 9 -1 9 C-1.09765625 2.84765625 -1.09765625 2.84765625 -1 1 C-0.67 0.67 -0.34 0.34 0 0 Z " fill="#C7DFD3" transform="translate(565,513)"/>
<path d="M0 0 C0 2.97 0 5.94 0 9 C-0.99 8.34 -1.98 7.68 -3 7 C-3.1875 3.875 -3.1875 3.875 -3 1 C-1 0 -1 0 0 0 Z " fill="#1A1A19" transform="translate(489,491)"/>
<path d="M0 0 C0.99 0.33 1.98 0.66 3 1 C2.67 2.65 2.34 4.3 2 6 C1.67 5.01 1.34 4.02 1 3 C-0.32 3.33 -1.64 3.66 -3 4 C-2.67 3.01 -2.34 2.02 -2 1 C-1.34 0.67 -0.68 0.34 0 0 Z " fill="#B6CCC3" transform="translate(450,474)"/>
<path d="M0 0 C0.33 0 0.66 0 1 0 C0.67 3.3 0.34 6.6 0 10 C-0.99 9.34 -1.98 8.68 -3 8 C-1.125 1.125 -1.125 1.125 0 0 Z " fill="#0E0B0A" transform="translate(560,466)"/>
<path d="M0 0 C-3.4352048 2.29013653 -4.985331 2.17842973 -9 2 C-9 1.34 -9 0.68 -9 0 C-5.67465243 -1.10844919 -3.37817425 -0.84454356 0 0 Z " fill="#F3F7F4" transform="translate(575,646)"/>
<path d="M0 0 C0.33 0 0.66 0 1 0 C0.88637738 1.4800841 0.75877092 2.95910074 0.625 4.4375 C0.52058594 5.67306641 0.52058594 5.67306641 0.4140625 6.93359375 C0.27742188 7.61550781 0.14078125 8.29742188 0 9 C-0.99 9.495 -0.99 9.495 -2 10 C-2.17942163 6.05272412 -2.09350689 3.4019487 0 0 Z " fill="#D6ECE4" transform="translate(415,533)"/>
<path d="M0 0 C0.99 0.33 1.98 0.66 3 1 C4.1875 4.5625 4.1875 4.5625 5 8 C4.34 8 3.68 8 3 8 C0.95830515 5.09451118 0 3.59857954 0 0 Z " fill="#D2E3DD" transform="translate(367,593)"/>
<path d="M0 0 C0.33 0 0.66 0 1 0 C1 1.98 1 3.96 1 6 C0.01 6.33 -0.98 6.66 -2 7 C-2.125 4.625 -2.125 4.625 -2 2 C-1.34 1.34 -0.68 0.68 0 0 Z " fill="#0A0807" transform="translate(544,537)"/>
<path d="M0 0 C0.99 0 1.98 0 3 0 C3 1.98 3 3.96 3 6 C2.01 5.67 1.02 5.34 0 5 C0 3.35 0 1.7 0 0 Z " fill="#BACFC8" transform="translate(569,509)"/>
<path d="M0 0 C0.99 0.33 1.98 0.66 3 1 C0.03 3.475 0.03 3.475 -3 6 C-3.66 5.67 -4.32 5.34 -5 5 C-3.35 3.35 -1.7 1.7 0 0 Z " fill="#ABBEB5" transform="translate(503,507)"/>
<path d="M0 0 C0.33 0 0.66 0 1 0 C1 2.64 1 5.28 1 8 C0.01 7.67 -0.98 7.34 -2 7 C-1.125 1.125 -1.125 1.125 0 0 Z " fill="#0C0A07" transform="translate(489,485)"/>
<path d="M0 0 C0.33 0 0.66 0 1 0 C1 1.98 1 3.96 1 6 C0.01 6.33 -0.98 6.66 -2 7 C-2.125 4.625 -2.125 4.625 -2 2 C-1.34 1.34 -0.68 0.68 0 0 Z " fill="#090706" transform="translate(424,481)"/>
</svg>
